<svg xmlns="http://www.w3.org/2000/svg" viewBox="0 0 113.44 21.5"><defs><style>.cls-1{fill:#f1f1f1;}</style></defs><title>Fichier 1</title><g id="Calque_2" data-name="Calque 2"><g id="Calque_1-2" data-name="Calque 1"><g id="Calque_2-2" data-name="Calque 2"><g id="Tracé"><path class="cls-1" d="M20.37,10.79c0,5.91-4.26,10.71-10.17,10.71S0,16.7,0,10.79,4.29.08,10.2.08,20.37,4.85,20.37,10.79Zm-2.22,0c0-4.74-3.24-8.58-8-8.58s-8,3.84-8,8.58,3.24,8.58,8,8.58S18.15,15.5,18.15,10.79Z"/><path class="cls-1" d="M40.17,15.71l1.92.93a10.08,10.08,0,0,1-8.67,4.8,10.7,10.7,0,0,1,0-21.39,10.1,10.1,0,0,1,8.67,4.74l-1.92,1a8,8,0,0,0-6.73-3.61c-4.74,0-8.13,3.84-8.13,8.55s3.39,8.58,8.13,8.58A8,8,0,0,0,40.17,15.71Z"/><path class="cls-1" d="M58.8.23V2.39H43.59V.23ZM50.1,5.87h2.19V21.23H50.1Z"/><path class="cls-1" d="M75.27,2.39H61.5V.23H75.27Zm-.93,9.4H61.5V9.65H74.34ZM75.45,19v2.19h-14V19Z"/><path class="cls-1" d="M80.91,3.41H78.75V.23h2.16Zm11.28,9.75,2.1.93c-.45,5.07-3.63,7.38-7.62,7.38-4.32,0-7.92-2.58-7.92-8.58V6.2h2.16V13c0,4.2,2.64,6.33,5.76,6.33S92.1,17.18,92.19,13.16ZM94.35.23V10.79l-2.16-.93V.23Z"/><path class="cls-1" d="M99.44,16.13a5,5,0,0,0,2.85,2.61l-1,1.92a7.1,7.1,0,0,1-3.93-3.81Zm14-.78c0,4-3.78,6.12-7.65,6.12a8.65,8.65,0,0,1-1.26-.06l1.08-2.1h.12c2.22,0,5.52-1,5.52-4,0-2.25-1.77-2.88-5.88-3.63S97.93,9.76,97.9,5.92c0-3.09,2.64-5.73,7.16-5.92h.19l-.38,2.19h-.11c-1.67.13-4.7,1.25-4.7,3.74,0,2.1,1.71,2.94,5.7,3.6C109.59,10.22,113.44,11.24,113.44,15.35Z"/></g></g></g></g></svg>